# xmcd
#
# Track frame offsets: 
#        187
#        30370
#        57417
#        76992
#        97750
#        130830
#        166822
#        187660
#        206870
#        233590
#
# Disc length: 3506 seconds
#
# Revision: 1
# Processed by: cddbd v1.5.2PL0 Copyright (c) Steve Scherf et al.
# Submitted via: ExactAudioCopy v0.99pb4
#
DISCID=6e0db00a
DTITLE=Various Artist - DO! JAZZ TRUMPET
DYEAR=1997
DGENRE=Jazz
TTITLE0=Donald Byrd - 'Round Midnight
TTITLE1=Miles Davis - My Funny Valentine
TTITLE2=Webster Young - Strange Fruit
TTITLE3=Art Farmer - Stablemates
TTITLE4=Clark Terry - One Foot In The Gutter
TTITLE5=Chet Baker - Polka Dots And Moonbeams
TTITLE6=Kenny Dorham - Lotus Blossom
TTITLE7=Nat Adderley - Work Song
TTITLE8=Blue Mitchell - I'll Close My Eyes
TTITLE9=Freddie Hubbard - I'll Never Smile Again
EXTD=YEAR: 1962
EXTT0=
EXTT1=
EXTT2=
EXTT3=
EXTT4=
EXTT5=
EXTT6=
EXTT7=
EXTT8=
EXTT9=
PLAYORDER=
